<?xml version="1.0" standalone="no"?>
<!DOCTYPE svg PUBLIC "-//W3C//DTD SVG 20010904//EN"
 "http://www.w3.org/TR/2001/REC-SVG-20010904/DTD/svg10.dtd">
<svg version="1.0" xmlns="http://www.w3.org/2000/svg"
 width="1536.000000pt" height="1024.000000pt" viewBox="0 0 1536.000000 1024.000000"
 preserveAspectRatio="xMidYMid meet">

<g transform="translate(0.000000,1024.000000) scale(0.100000,-0.100000)"
fill="#000000" stroke="none">
<path d="M0 5120 l0 -5120 7680 0 7680 0 0 5120 0 5120 -7680 0 -7680 0 0
-5120z m10090 2544 c0 -6 -11 -47 -26 -90 -55 -173 -186 -311 -361 -384 -67
-28 -165 -46 -218 -40 -5 0 -152 5 -326 9 -282 8 -319 11 -345 27 -16 10 -32
23 -36 29 -4 5 -8 6 -8 2 0 -4 -10 1 -22 13 -12 11 -26 20 -30 20 -5 0 -6 5
-3 10 3 6 0 10 -7 10 -7 0 -26 11 -42 25 -16 13 -33 22 -39 18 -6 -3 -7 -1 -3
5 4 7 2 12 -4 12 -6 0 -8 5 -4 12 4 7 3 8 -5 4 -6 -4 -25 2 -41 14 -17 12 -38
23 -48 24 -9 2 -17 9 -17 17 -1 8 -6 13 -13 11 -7 -1 -11 2 -10 7 2 5 -1 10
-7 11 -18 3 -45 33 -38 43 3 6 1 7 -5 3 -7 -4 -12 -2 -12 5 0 7 -3 9 -7 6 -9
-10 -44 24 -37 35 3 5 -1 8 -9 6 -9 -2 -16 2 -17 7 -1 6 -8 14 -16 18 -8 4
-14 14 -14 21 0 7 -17 19 -37 27 l-36 14 29 6 c16 4 -28 7 -98 8 l-127 1 -10
-37 c-6 -21 -20 -82 -32 -135 -22 -97 -30 -110 -36 -63 -3 22 29 220 43 268 6
18 42 19 1040 15 756 -2 1034 -6 1034 -14z m-3399 -488 c5 3 9 0 9 -5 0 -7 66
-11 198 -12 108 -1 188 -4 178 -6 -14 -4 -16 -7 -6 -13 21 -13 -154 -23 -284
-17 -65 3 -120 8 -123 10 -2 3 -1 18 3 33 4 16 9 23 12 16 2 -7 8 -10 13 -6z
m1983 -566 c400 -255 580 -375 642 -427 112 -94 199 -231 235 -372 26 -99 27
-259 3 -356 -19 -79 -91 -237 -126 -275 -13 -14 -19 -20 -14 -13 5 8 6 16 2
20 -3 4 -14 -4 -24 -18 -16 -23 -16 -37 1 -31 25 8 -51 -72 -132 -139 -145
-120 -329 -204 -541 -246 -75 -14 -192 -17 -965 -20 -484 -2 -927 -3 -985 -1
l-105 3 35 20 c34 19 55 20 970 20 l935 0 110 23 c272 57 453 149 606 309 240
251 285 594 114 868 -92 148 -153 196 -688 537 -297 189 -310 198 -347 250
-23 31 -26 43 -17 52 9 10 17 5 38 -23 17 -25 99 -83 253 -181z m-1547 128
c-3 -8 -6 -5 -6 6 -1 11 2 17 5 13 3 -3 4 -12 1 -19z m729 -5 c-7 -7 35 -145
56 -186 48 -96 98 -133 553 -417 251 -156 374 -242 356 -248 -6 -2 -8 -9 -4
-15 3 -6 -9 -2 -28 10 -155 93 -374 229 -471 292 -65 42 -157 101 -205 131
-160 101 -236 195 -268 332 -19 80 -19 105 0 105 8 0 13 -2 11 -4z m-727 -39
c1 11 3 17 6 15 13 -14 -96 -584 -128 -669 -138 -368 -435 -638 -827 -754 -47
-14 -76 -25 -64 -25 11 -1 26 -7 33 -13 11 -11 12 -10 6 1 -5 9 -3 12 6 9 8
-3 13 -11 11 -17 -3 -15 34 -51 44 -43 4 4 4 2 1 -4 -8 -13 75 -94 97 -94 10
0 16 -8 16 -21 0 -14 5 -19 14 -16 16 6 36 -13 40 -37 1 -8 13 -24 26 -36 12
-11 20 -20 15 -20 -4 0 3 -9 16 -21 13 -11 19 -18 13 -15 -6 3 -11 -1 -11 -9
0 -8 4 -12 9 -9 4 3 15 -1 23 -9 12 -13 8 -18 -33 -40 -26 -14 -81 -35 -122
-47 -41 -12 -105 -31 -142 -42 -39 -11 -108 -21 -160 -23 -51 -2 -138 -8 -193
-13 -141 -14 -715 -15 -715 -2 0 45 39 180 71 249 31 67 54 98 112 155 40 39
103 87 139 107 l67 37 283 5 c267 4 288 6 373 30 284 82 496 226 661 449 45
61 135 231 160 301 13 35 87 386 126 592 10 50 13 56 19 35 5 -19 7 -20 8 -6z
m436 -471 c-38 -249 -78 -395 -152 -553 -51 -111 -175 -300 -229 -350 -20 -19
-34 -29 -30 -22 4 6 3 12 -1 12 -5 0 -15 -6 -22 -12 -8 -7 9 17 37 53 186 244
290 486 362 842 6 31 16 55 21 52 5 -4 9 -1 9 4 0 6 3 11 6 11 3 0 3 -17 -1
-37z m-2415 -2558 c0 -69 2 -125 5 -125 2 0 20 11 40 24 90 62 241 34 307 -55
30 -40 38 -92 38 -271 l0 -168 -69 0 -69 0 -4 171 -3 171 -33 29 c-69 62 -177
30 -202 -60 -5 -20 -10 -98 -10 -173 l0 -136 -70 -4 -70 -3 0 363 0 362 70 0
70 0 0 -125z m3496 94 c62 -11 157 -48 151 -58 -1 -3 -13 -28 -25 -54 -13 -30
-27 -47 -35 -43 -153 64 -280 55 -308 -22 -7 -17 -2 -29 19 -52 22 -25 46 -35
132 -56 113 -27 191 -64 214 -100 9 -12 20 -42 26 -67 22 -87 -24 -172 -118
-218 -42 -21 -61 -24 -172 -23 -105 0 -134 3 -181 22 -95 38 -95 39 -63 104
l27 56 48 -24 c88 -45 225 -56 278 -22 11 7 26 25 32 40 17 42 -8 73 -73 92
-198 57 -230 68 -262 96 -46 40 -59 78 -54 149 7 97 61 151 178 177 71 16 113
17 186 3z m-3798 -219 c4 -337 -13 -401 -121 -455 -72 -36 -182 -36 -253 0
-91 47 -91 45 -48 109 l37 56 29 -25 c67 -57 158 -50 190 15 16 30 18 67 18
276 l0 240 73 0 72 -1 3 -215z m4242 113 c0 -27 4 -53 8 -60 4 -7 36 -13 72
-15 l65 -3 3 -52 3 -53 -70 0 -71 0 0 -124 c0 -104 3 -127 18 -146 19 -23 50
-29 93 -17 22 6 28 2 42 -29 24 -50 21 -63 -18 -80 -54 -22 -152 -18 -199 9
-69 39 -80 70 -85 240 l-3 147 -44 0 -44 0 0 55 0 55 45 0 45 0 0 60 0 60 70
0 70 0 0 -47z m-3059 -73 c35 -11 80 -33 101 -50 109 -90 119 -281 20 -383
-65 -68 -103 -82 -217 -82 -112 0 -153 15 -212 77 -117 122 -89 341 52 416 86
45 162 52 256 22z m686 5 c120 -36 186 -128 186 -259 0 -53 -6 -83 -23 -119
-27 -58 -95 -119 -148 -135 -82 -25 -185 -9 -234 35 -17 15 -18 10 -18 -110
l0 -127 -70 0 -70 0 0 360 0 360 65 0 65 0 0 -30 c0 -16 5 -30 10 -30 6 0 10
4 10 10 0 12 54 41 95 51 48 11 78 10 132 -6z m649 -16 c52 -25 87 -67 103
-124 6 -22 11 -118 11 -212 l0 -173 -39 0 c-75 0 -101 10 -101 38 l0 25 -22
-20 c-39 -35 -64 -43 -135 -43 -79 0 -143 27 -177 73 -29 40 -29 125 0 164 41
55 78 68 207 72 l117 3 0 28 c0 19 -10 37 -31 54 -26 22 -40 26 -92 26 -39 0
-77 -7 -103 -19 l-42 -19 -31 45 c-18 25 -31 46 -29 48 17 15 101 49 137 55
69 13 175 3 227 -21z m641 19 c59 -14 127 -78 142 -133 6 -22 11 -120 11 -218
l0 -179 -72 4 -73 3 -5 177 c-6 201 -10 213 -88 228 -55 10 -102 -8 -129 -49
-22 -32 -23 -44 -23 -192 l0 -159 -76 0 -77 0 7 92 c3 50 6 167 6 260 l0 168
65 0 65 0 0 -32 c0 -29 1 -30 18 -16 58 51 143 68 229 46z m1696 -8 c117 -36
187 -132 187 -256 0 -101 -53 -187 -145 -237 -33 -18 -56 -22 -140 -22 -117 0
-155 15 -222 87 -49 54 -67 104 -67 183 1 70 19 117 64 169 76 86 197 115 323
76z m627 -45 l0 -65 -36 0 c-68 0 -127 -44 -138 -102 -3 -13 -5 -86 -5 -163
l-1 -140 -73 0 -72 0 -3 263 -2 262 70 0 70 0 0 -30 c0 -35 10 -38 35 -10 19
21 92 48 133 49 21 1 22 -3 22 -64z m472 35 c89 -46 128 -106 136 -212 l5 -68
-202 0 c-219 0 -222 -1 -180 -54 50 -63 153 -78 233 -33 l44 25 38 -39 c43
-44 40 -53 -35 -97 -38 -22 -60 -27 -137 -30 -83 -4 -98 -2 -151 22 -111 51
-163 130 -163 246 1 166 127 277 302 266 41 -3 83 -13 110 -26z"/>
<path d="M5863 3460 c-43 -26 -67 -74 -67 -136 0 -92 60 -148 152 -141 41 3
59 10 82 32 55 52 63 153 17 211 -41 53 -127 69 -184 34z"/>
<path d="M6554 3464 c-67 -33 -97 -152 -54 -221 56 -93 202 -82 244 19 56 134
-66 263 -190 202z"/>
<path d="M7146 3269 c-57 -45 -15 -109 71 -109 67 0 113 39 113 94 l0 36 -79
0 c-64 0 -83 -4 -105 -21z"/>
<path d="M9533 3460 c-44 -26 -63 -59 -69 -116 -6 -60 16 -108 66 -142 29 -20
44 -23 89 -19 49 3 59 8 87 41 50 58 53 135 9 203 -34 51 -125 68 -182 33z"/>
<path d="M10598 3474 c-28 -15 -72 -86 -61 -98 9 -9 261 -7 267 2 10 16 -25
73 -56 92 -39 24 -111 26 -150 4z"/>
</g>
</svg>
